HIERARCHY
ROOT Hips
{
	OFFSET 0.00000 0.00000 0.00000
	CHANNELS 6 Xposition Yposition Zposition Zrotation Yrotation Xrotation 
	JOINT LHipJoint
	{
		OFFSET 0 0 0
		CHANNELS 3 Zrotation Yrotation Xrotation
		JOINT LeftHip
		{
			OFFSET 1.41261 -1.82971 0.84908
			CHANNELS 3 Zrotation Yrotation Xrotation
			JOINT LeftKnee
			{
				OFFSET 2.52554 -6.93888 0.00000
				CHANNELS 3 Zrotation Yrotation Xrotation
				JOINT LeftAnkle
				{
					OFFSET 2.56654 -7.05152 0.00000
					CHANNELS 3 Zrotation Yrotation Xrotation
					JOINT LeftToe
					{
						OFFSET 0.21698 -0.59616 1.85369
						CHANNELS 3 Zrotation Yrotation Xrotation
						End Site
						{
							OFFSET 0.00000 -0.00000 0.97832
						}
					}
				}
			}
		}
	}
	JOINT RHipJoint
	{
		OFFSET 0 0 0
		CHANNELS 3 Zrotation Yrotation Xrotation
		JOINT RightHip
		{
			OFFSET -1.12808 -1.82971 0.84907
			CHANNELS 3 Zrotation Yrotation Xrotation
			JOINT RightKnee
			{
				OFFSET -2.53425 -6.96280 0.00000
				CHANNELS 3 Zrotation Yrotation Xrotation
				JOINT RightAnkle
				{
					OFFSET -2.58413 -7.09983 0.00000
					CHANNELS 3 Zrotation Yrotation Xrotation
					JOINT RightToe
					{
						OFFSET -0.26437 -0.72636 1.92241
						CHANNELS 3 Zrotation Yrotation Xrotation
						End Site
						{
							OFFSET -0.00000 -0.00000 1.02667
						}
					}
				}
			}
		}
	}
	JOINT lowerback
	{
		OFFSET 0 0 0
		CHANNELS 3 Zrotation Yrotation Xrotation
		JOINT Chest
		{
			OFFSET -0.02096 2.02288 -0.14752
			CHANNELS 3 Zrotation Yrotation Xrotation
			JOINT Chest2
			{
				OFFSET 0.03477 2.03136 -0.02358
				CHANNELS 3 Zrotation Yrotation Xrotation
				JOINT lowerneck
				{
					OFFSET 0 0 0
					CHANNELS 3 Zrotation Yrotation Xrotation
					JOINT Neck
					{
						OFFSET 0.00174 1.74359 0.19336
						CHANNELS 3 Zrotation Yrotation Xrotation
						JOINT Head
						{
							OFFSET -0.03054 1.76140 -0.17751
							CHANNELS 3 Zrotation Yrotation Xrotation
							End Site
							{
								OFFSET -0.00863 1.77239 -0.08120
							}
						}
					}
				}
				JOINT LeftCollar
				{
					OFFSET 0 0 0
					CHANNELS 3 Zrotation Yrotation Xrotation
					JOINT LeftShoulder
					{
						OFFSET 3.68685 1.32687 -0.67367
CHANNELS 3 Zrotation Xrotation Yrotation
						JOINT LeftElbow
						{
OFFSET 0 -4.764680 -0.000000
CHANNELS 3 Zrotation Xrotation Yrotation
							JOINT LeftWrist
							{
OFFSET 0 -3.527120 -0.000000
CHANNELS 3 Zrotation Xrotation Yrotation
								JOINT lhand
								{
									OFFSET 0 0 0
CHANNELS 3 Zrotation Xrotation Yrotation
									JOINT LFingers
									{
OFFSET 0 -0.859560 -0.000000
CHANNELS 3 Zrotation Xrotation Yrotation
										End Site
										{
OFFSET 0 -0.693000 -0.000000
										}
									}
								}
								JOINT LThumb
								{
OFFSET 0 0.000000 0.000000
CHANNELS 3 Zrotation Xrotation Yrotation
									End Site
									{
OFFSET 0 -0.703580 0.703580
									}
								}
							}
						}
					}
				}
				JOINT RightCollar
				{
					OFFSET 0 0 0
					CHANNELS 3 Zrotation Yrotation Xrotation
					JOINT RightShoulder
					{
						OFFSET -3.31304 1.28268 -0.97357
CHANNELS 3 Zrotation Xrotation Yrotation
						JOINT RightElbow
						{
OFFSET 0 -4.905770 -0.000000
CHANNELS 3 Zrotation Xrotation Yrotation
							JOINT RightWrist
							{
OFFSET 0 -3.426920 0.000000
CHANNELS 3 Zrotation Xrotation Yrotation
								JOINT rhand
								{
									OFFSET 0 0 0
CHANNELS 3 Zrotation Xrotation Yrotation
									JOINT RFingers
									{
OFFSET 0 -0.740960 -0.000000
CHANNELS 3 Zrotation Xrotation Yrotation
										End Site
										{
OFFSET 0 -0.597380 -0.000000
										}
									}
								}
								JOINT RThumb
								{
OFFSET 0 0.000000 0.000000
CHANNELS 3 Zrotation Xrotation Yrotation
									End Site
									{
OFFSET 0 -0.606500 0.606500
									}
								}
							}
						}
					}
				}
			}
		}
	}
}
MOTION
Frames: 4
Frame Time: 0.008333333333333333
0.588300 17.995700 -3.516000 -2.503000 0.251000 3.573200 0.000000 0.000000 0.000000 -15.392300 1.263700 1.830300 0.153800 2.526800 6.964000 0.434600 -1.413300 -12.042200 2.293900 -9.453100 -27.223300 0.000000 0.000000 0.000000 20.610100 -0.644800 -2.450700 -0.572500 -4.845700 13.468900 -0.436300 -5.058600 -15.363000 -0.346500 -3.782000 10.464300 -3.238200 -1.626400 3.288900 1.964900 -2.257300 0.119700 3.940500 -1.100400 -1.516000 -9.870000 -8.939000 -0.317300 -3.541200 -11.030800 18.069100 -0.141400 -6.228700 5.942500 0.000000 -0.000000 0.000000 -9.001200 12.803800 2.706300 15.590300 -24.962000 3.471300 5.777600 44.755800 37.831900 0.000000 0.000000 0.000000 -7.125000 0.000000 0.000000 -14.935900 -6.867700 -17.176200 0.000000 -0.000000 0.000000 6.010900 5.500900 13.729200 -12.308000 -20.265000 -2.207800 10.699300 -15.438900 39.621300 0.000000 0.000000 0.000000 7.125000 0.000000 -0.000000 54.117400 61.255400 -25.445400
0.573762 17.988554 -3.516466 -1.392750 0.335760 3.367321 0.000000 0.000000 0.000000 -16.620840 1.109094 1.978073 0.160366 2.579853 7.111207 0.449559 -1.569732 -12.217730 2.955202 -10.621714 -31.014959 0.000000 0.000000 0.000000 19.329336 -0.436535 -2.133784 -0.570387 -4.836660 13.443380 -0.417062 -5.456959 -15.424922 -0.327545 -3.678410 10.173519 -4.703522 -1.667423 3.653542 1.792781 -2.388158 -0.013944 4.611562 -1.144962 -1.794479 -10.372197 -8.962327 0.307726 -2.675546 -11.270344 17.054009 0.242702 -6.289203 5.603474 0.000000 0.000000 0.000000 -9.154366 12.926378 -8.241035 18.360562 -28.604889 4.726750 -4.577969 4.889944 11.380447 0.000000 0.000000 0.000000 -7.125000 0.000000 0.000000 -22.031565 18.876168 -14.556913 0.000000 0.000000 0.000000 4.849262 5.002742 12.149878 -11.915067 -19.676987 -2.073638 12.736309 -16.940032 39.290651 0.000000 0.000000 0.000000 7.125000 0.000000 0.000000 55.432456 60.525906 -25.333435
0.568019 17.980821 -3.512577 -0.772467 0.276572 3.270463 0.000000 0.000000 0.000000 -17.285792 1.175454 1.994963 0.164108 2.609853 7.194278 0.454205 -1.619973 -12.272731 2.838890 -10.428812 -30.377655 0.000000 0.000000 0.000000 18.621171 -0.160082 -1.887656 -0.567394 -4.824085 13.407600 -0.415305 -5.669584 -15.573725 -0.351877 -3.811234 10.546146 -5.503559 -1.677631 3.950745 1.695008 -2.457319 -0.226370 4.982348 -1.156069 -2.144994 -10.583922 -9.127323 0.525080 -2.260753 -11.590174 16.361994 0.409918 -6.411640 5.398008 0.000000 0.000000 0.000000 -9.168021 13.142971 -12.500866 21.310655 -32.188960 6.214715 2.812688 -23.210927 -6.221777 0.000000 0.000000 0.000000 -7.125000 0.000000 0.000000 -19.781382 35.574901 -4.819696 0.000000 0.000000 0.000000 3.363627 4.661558 11.810804 -11.658193 -19.290023 -1.987920 15.272482 -18.048634 40.424878 0.000000 0.000000 0.000000 7.125000 0.000000 0.000000 59.126742 60.569588 -27.819322
0.578016 17.979340 -3.498505 -0.959877 0.091651 3.286704 0.000000 0.000000 0.000000 -17.086976 1.345474 2.023506 0.159341 2.572211 7.089912 0.457482 -1.527687 -12.338986 2.476116 -9.793883 -28.312251 0.000000 0.000000 0.000000 18.818754 -0.095567 -1.847892 -0.565081 -4.814465 13.380174 -0.417199 -5.648393 -15.580218 -0.303088 -3.539529 9.784677 -5.245454 -1.625996 3.912195 1.772955 -2.377392 -0.516049 4.919719 -1.102490 -2.440252 -10.887476 -9.517605 0.292029 -2.122453 -12.094478 16.625905 0.439841 -6.675883 5.572225 0.000000 0.000000 0.000000 -9.066904 13.320146 -11.621545 20.992220 -31.819140 6.045923 3.381839 -21.277776 -6.587661 0.000000 0.000000 0.000000 -7.125000 0.000000 0.000000 -19.416588 35.954673 -4.532738 0.000000 0.000000 0.000000 1.741234 4.676968 10.976039 -11.392821 -18.887625 -1.901272 15.000492 -14.070019 40.207341 0.000000 0.000000 0.000000 7.125000 0.000000 0.000000 58.600361 60.510747 -27.380354
